<mxfile host="app.diagrams.net" agent="Mozilla/5.0 (Windows NT 10.0; Win64; x64) AppleWebKit/537.36 (KHTML, like Gecko) Chrome/137.0.0.0 Safari/537.36" version="27.1.6">
  <diagram name="Page-1" id="TQxEPaLgYGswAsEaTfe_">
    <mxGraphModel dx="854" dy="427" grid="1" gridSize="10" guides="1" tooltips="1" connect="1" arrows="1" fold="1" page="1" pageScale="1" pageWidth="1654" pageHeight="2336" math="0" shadow="0">
      <root>
        <mxCell id="0" />
        <mxCell id="1" parent="0" />
        <mxCell id="uxrSuiRVOPCv7kYr1vWN-1" value="&lt;font style=&quot;font-size: 20px;&quot;&gt;&lt;b&gt;Student Management System ER Diagram&lt;/b&gt;&lt;/font&gt;" style="text;html=1;align=center;verticalAlign=middle;whiteSpace=wrap;rounded=0;strokeColor=default;" parent="1" vertex="1">
          <mxGeometry x="520" y="80" width="480" height="80" as="geometry" />
        </mxCell>
        <mxCell id="uxrSuiRVOPCv7kYr1vWN-3" value="&lt;span style=&quot;font-size: 18px;&quot;&gt;student&lt;/span&gt;" style="whiteSpace=wrap;html=1;align=center;" parent="1" vertex="1">
          <mxGeometry x="380" y="680" width="120" height="40" as="geometry" />
        </mxCell>
        <mxCell id="uxrSuiRVOPCv7kYr1vWN-4" value="&lt;span style=&quot;font-size: 18px;&quot;&gt;course&lt;/span&gt;" style="whiteSpace=wrap;html=1;align=center;" parent="1" vertex="1">
          <mxGeometry x="713.5" y="1148" width="120" height="40" as="geometry" />
        </mxCell>
        <mxCell id="uxrSuiRVOPCv7kYr1vWN-5" value="&lt;span style=&quot;font-size: 18px;&quot;&gt;admin&lt;/span&gt;" style="whiteSpace=wrap;html=1;align=center;" parent="1" vertex="1">
          <mxGeometry x="687" y="460" width="120" height="40" as="geometry" />
        </mxCell>
        <mxCell id="uxrSuiRVOPCv7kYr1vWN-6" value="&lt;span style=&quot;font-size: 18px;&quot;&gt;teacher&lt;/span&gt;" style="whiteSpace=wrap;html=1;align=center;" parent="1" vertex="1">
          <mxGeometry x="1080" y="680" width="120" height="40" as="geometry" />
        </mxCell>
        <mxCell id="uxrSuiRVOPCv7kYr1vWN-7" value="&lt;font style=&quot;font-size: 18px;&quot;&gt;id&lt;/font&gt;" style="ellipse;whiteSpace=wrap;html=1;align=center;fontStyle=4;" parent="1" vertex="1">
          <mxGeometry x="1020" y="540" width="100" height="40" as="geometry" />
        </mxCell>
        <mxCell id="uxrSuiRVOPCv7kYr1vWN-8" value="&lt;span style=&quot;font-size: 18px;&quot;&gt;id&lt;/span&gt;" style="ellipse;whiteSpace=wrap;html=1;align=center;fontStyle=4;" parent="1" vertex="1">
          <mxGeometry x="660" y="330" width="100" height="40" as="geometry" />
        </mxCell>
        <mxCell id="uxrSuiRVOPCv7kYr1vWN-9" value="&lt;span style=&quot;font-size: 18px;&quot;&gt;id&lt;/span&gt;" style="ellipse;whiteSpace=wrap;html=1;align=center;fontStyle=4;" parent="1" vertex="1">
          <mxGeometry x="360" y="560" width="100" height="40" as="geometry" />
        </mxCell>
        <mxCell id="uxrSuiRVOPCv7kYr1vWN-11" value="&lt;span style=&quot;font-size: 18px;&quot;&gt;full_name&lt;/span&gt;" style="ellipse;whiteSpace=wrap;html=1;align=center;" parent="1" vertex="1">
          <mxGeometry x="190" y="560" width="150" height="40" as="geometry" />
        </mxCell>
        <mxCell id="uxrSuiRVOPCv7kYr1vWN-12" value="&lt;span style=&quot;font-size: 18px;&quot;&gt;user_name&lt;/span&gt;" style="ellipse;whiteSpace=wrap;html=1;align=center;" parent="1" vertex="1">
          <mxGeometry x="127.5" y="800" width="150" height="40" as="geometry" />
        </mxCell>
        <mxCell id="uxrSuiRVOPCv7kYr1vWN-13" value="&lt;span style=&quot;font-size: 18px;&quot;&gt;full_name&lt;/span&gt;" style="ellipse;whiteSpace=wrap;html=1;align=center;" parent="1" vertex="1">
          <mxGeometry x="1100" y="500" width="150" height="40" as="geometry" />
        </mxCell>
        <mxCell id="uxrSuiRVOPCv7kYr1vWN-15" value="&lt;span style=&quot;font-size: 18px;&quot;&gt;email&lt;/span&gt;" style="ellipse;whiteSpace=wrap;html=1;align=center;" parent="1" vertex="1">
          <mxGeometry x="120" y="740" width="150" height="40" as="geometry" />
        </mxCell>
        <mxCell id="uxrSuiRVOPCv7kYr1vWN-16" value="&lt;span style=&quot;font-size: 18px;&quot;&gt;dob&lt;/span&gt;" style="ellipse;whiteSpace=wrap;html=1;align=center;" parent="1" vertex="1">
          <mxGeometry x="152.5" y="620" width="125" height="40" as="geometry" />
        </mxCell>
        <mxCell id="uxrSuiRVOPCv7kYr1vWN-17" value="&lt;span style=&quot;font-size: 18px;&quot;&gt;contact_no&lt;/span&gt;" style="ellipse;whiteSpace=wrap;html=1;align=center;" parent="1" vertex="1">
          <mxGeometry x="120" y="680" width="150" height="40" as="geometry" />
        </mxCell>
        <mxCell id="uxrSuiRVOPCv7kYr1vWN-18" value="&lt;span style=&quot;font-size: 18px;&quot;&gt;address&lt;/span&gt;" style="ellipse;whiteSpace=wrap;html=1;align=center;" parent="1" vertex="1">
          <mxGeometry x="510" y="780" width="150" height="40" as="geometry" />
        </mxCell>
        <mxCell id="uxrSuiRVOPCv7kYr1vWN-19" value="&lt;span style=&quot;font-size: 18px;&quot;&gt;password&lt;/span&gt;" style="ellipse;whiteSpace=wrap;html=1;align=center;" parent="1" vertex="1">
          <mxGeometry x="277.5" y="820" width="150" height="40" as="geometry" />
        </mxCell>
        <mxCell id="uxrSuiRVOPCv7kYr1vWN-20" value="" style="endArrow=none;html=1;rounded=0;exitX=0.5;exitY=1;exitDx=0;exitDy=0;entryX=0.25;entryY=0;entryDx=0;entryDy=0;" parent="1" source="uxrSuiRVOPCv7kYr1vWN-9" target="uxrSuiRVOPCv7kYr1vWN-3" edge="1">
          <mxGeometry relative="1" as="geometry">
            <mxPoint x="550" y="710" as="sourcePoint" />
            <mxPoint x="710" y="710" as="targetPoint" />
          </mxGeometry>
        </mxCell>
        <mxCell id="uxrSuiRVOPCv7kYr1vWN-21" value="" style="endArrow=none;html=1;rounded=0;exitX=1;exitY=0.5;exitDx=0;exitDy=0;entryX=0;entryY=0.25;entryDx=0;entryDy=0;" parent="1" source="uxrSuiRVOPCv7kYr1vWN-16" target="uxrSuiRVOPCv7kYr1vWN-3" edge="1">
          <mxGeometry relative="1" as="geometry">
            <mxPoint x="500" y="610" as="sourcePoint" />
            <mxPoint x="500" y="730" as="targetPoint" />
          </mxGeometry>
        </mxCell>
        <mxCell id="uxrSuiRVOPCv7kYr1vWN-22" value="" style="endArrow=none;html=1;rounded=0;exitX=1;exitY=0.5;exitDx=0;exitDy=0;entryX=0;entryY=0.5;entryDx=0;entryDy=0;" parent="1" source="uxrSuiRVOPCv7kYr1vWN-17" target="uxrSuiRVOPCv7kYr1vWN-3" edge="1">
          <mxGeometry relative="1" as="geometry">
            <mxPoint x="510" y="620" as="sourcePoint" />
            <mxPoint x="460" y="700" as="targetPoint" />
          </mxGeometry>
        </mxCell>
        <mxCell id="uxrSuiRVOPCv7kYr1vWN-23" value="" style="endArrow=none;html=1;rounded=0;entryX=0;entryY=0;entryDx=0;entryDy=0;exitX=1;exitY=1;exitDx=0;exitDy=0;" parent="1" source="uxrSuiRVOPCv7kYr1vWN-11" target="uxrSuiRVOPCv7kYr1vWN-3" edge="1">
          <mxGeometry relative="1" as="geometry">
            <mxPoint x="390" y="600" as="sourcePoint" />
            <mxPoint x="430" y="660" as="targetPoint" />
          </mxGeometry>
        </mxCell>
        <mxCell id="uxrSuiRVOPCv7kYr1vWN-24" value="" style="endArrow=none;html=1;rounded=0;exitX=1;exitY=0;exitDx=0;exitDy=0;entryX=0;entryY=1;entryDx=0;entryDy=0;" parent="1" source="uxrSuiRVOPCv7kYr1vWN-15" target="uxrSuiRVOPCv7kYr1vWN-3" edge="1">
          <mxGeometry relative="1" as="geometry">
            <mxPoint x="520" y="630" as="sourcePoint" />
            <mxPoint x="470" y="710" as="targetPoint" />
          </mxGeometry>
        </mxCell>
        <mxCell id="uxrSuiRVOPCv7kYr1vWN-25" value="" style="endArrow=none;html=1;rounded=0;exitX=0.25;exitY=1;exitDx=0;exitDy=0;entryX=1;entryY=0;entryDx=0;entryDy=0;" parent="1" source="uxrSuiRVOPCv7kYr1vWN-3" target="uxrSuiRVOPCv7kYr1vWN-12" edge="1">
          <mxGeometry relative="1" as="geometry">
            <mxPoint x="530" y="640" as="sourcePoint" />
            <mxPoint x="480" y="720" as="targetPoint" />
          </mxGeometry>
        </mxCell>
        <mxCell id="uxrSuiRVOPCv7kYr1vWN-26" value="" style="endArrow=none;html=1;rounded=0;entryX=0.5;entryY=0;entryDx=0;entryDy=0;exitX=0.5;exitY=1;exitDx=0;exitDy=0;" parent="1" source="uxrSuiRVOPCv7kYr1vWN-3" target="uxrSuiRVOPCv7kYr1vWN-19" edge="1">
          <mxGeometry relative="1" as="geometry">
            <mxPoint x="540" y="650" as="sourcePoint" />
            <mxPoint x="490" y="730" as="targetPoint" />
          </mxGeometry>
        </mxCell>
        <mxCell id="uxrSuiRVOPCv7kYr1vWN-27" value="" style="endArrow=none;html=1;rounded=0;entryX=0.5;entryY=0;entryDx=0;entryDy=0;exitX=1;exitY=1;exitDx=0;exitDy=0;" parent="1" source="uxrSuiRVOPCv7kYr1vWN-3" target="uxrSuiRVOPCv7kYr1vWN-18" edge="1">
          <mxGeometry relative="1" as="geometry">
            <mxPoint x="320" y="860" as="sourcePoint" />
            <mxPoint x="500" y="740" as="targetPoint" />
          </mxGeometry>
        </mxCell>
        <mxCell id="uxrSuiRVOPCv7kYr1vWN-28" value="&lt;span style=&quot;font-size: 18px;&quot;&gt;specialization&lt;/span&gt;" style="ellipse;whiteSpace=wrap;html=1;align=center;" parent="1" vertex="1">
          <mxGeometry x="930" y="790" width="150" height="40" as="geometry" />
        </mxCell>
        <mxCell id="uxrSuiRVOPCv7kYr1vWN-29" value="&lt;span style=&quot;font-size: 18px;&quot;&gt;contact&lt;/span&gt;" style="ellipse;whiteSpace=wrap;html=1;align=center;" parent="1" vertex="1">
          <mxGeometry x="1350" y="670" width="150" height="40" as="geometry" />
        </mxCell>
        <mxCell id="uxrSuiRVOPCv7kYr1vWN-30" value="&lt;span style=&quot;font-size: 18px;&quot;&gt;password&lt;/span&gt;" style="ellipse;whiteSpace=wrap;html=1;align=center;" parent="1" vertex="1">
          <mxGeometry x="1330" y="730" width="150" height="40" as="geometry" />
        </mxCell>
        <mxCell id="uxrSuiRVOPCv7kYr1vWN-31" value="&lt;span style=&quot;font-size: 18px;&quot;&gt;user_name&lt;/span&gt;" style="ellipse;whiteSpace=wrap;html=1;align=center;" parent="1" vertex="1">
          <mxGeometry x="1210" y="780" width="150" height="40" as="geometry" />
        </mxCell>
        <mxCell id="uxrSuiRVOPCv7kYr1vWN-32" value="&lt;span style=&quot;font-size: 18px;&quot;&gt;email&lt;/span&gt;" style="ellipse;whiteSpace=wrap;html=1;align=center;" parent="1" vertex="1">
          <mxGeometry x="1140" y="840" width="130" height="40" as="geometry" />
        </mxCell>
        <mxCell id="uxrSuiRVOPCv7kYr1vWN-33" value="&lt;span style=&quot;font-size: 18px;&quot;&gt;address&lt;/span&gt;" style="ellipse;whiteSpace=wrap;html=1;align=center;" parent="1" vertex="1">
          <mxGeometry x="1310" y="600" width="150" height="40" as="geometry" />
        </mxCell>
        <mxCell id="uxrSuiRVOPCv7kYr1vWN-34" value="&lt;span style=&quot;font-size: 18px;&quot;&gt;dob&lt;/span&gt;" style="ellipse;whiteSpace=wrap;html=1;align=center;" parent="1" vertex="1">
          <mxGeometry x="1200" y="550" width="120" height="40" as="geometry" />
        </mxCell>
        <mxCell id="uxrSuiRVOPCv7kYr1vWN-35" value="" style="endArrow=none;html=1;rounded=0;entryX=0.5;entryY=1;entryDx=0;entryDy=0;exitX=0.5;exitY=0;exitDx=0;exitDy=0;" parent="1" source="uxrSuiRVOPCv7kYr1vWN-32" target="uxrSuiRVOPCv7kYr1vWN-6" edge="1">
          <mxGeometry relative="1" as="geometry">
            <mxPoint x="1160" y="900" as="sourcePoint" />
            <mxPoint x="1140" y="820" as="targetPoint" />
          </mxGeometry>
        </mxCell>
        <mxCell id="uxrSuiRVOPCv7kYr1vWN-36" value="" style="endArrow=none;html=1;rounded=0;exitX=0.5;exitY=0;exitDx=0;exitDy=0;entryX=0;entryY=1;entryDx=0;entryDy=0;" parent="1" source="uxrSuiRVOPCv7kYr1vWN-28" target="uxrSuiRVOPCv7kYr1vWN-6" edge="1">
          <mxGeometry relative="1" as="geometry">
            <mxPoint x="1020" y="510" as="sourcePoint" />
            <mxPoint x="1180" y="510" as="targetPoint" />
          </mxGeometry>
        </mxCell>
        <mxCell id="uxrSuiRVOPCv7kYr1vWN-37" value="" style="endArrow=none;html=1;rounded=0;exitX=1;exitY=0.75;exitDx=0;exitDy=0;entryX=0;entryY=0.5;entryDx=0;entryDy=0;" parent="1" source="uxrSuiRVOPCv7kYr1vWN-6" target="uxrSuiRVOPCv7kYr1vWN-29" edge="1">
          <mxGeometry relative="1" as="geometry">
            <mxPoint x="1030" y="520" as="sourcePoint" />
            <mxPoint x="1190" y="520" as="targetPoint" />
          </mxGeometry>
        </mxCell>
        <mxCell id="uxrSuiRVOPCv7kYr1vWN-38" value="" style="endArrow=none;html=1;rounded=0;exitX=1;exitY=0.5;exitDx=0;exitDy=0;entryX=0;entryY=0.5;entryDx=0;entryDy=0;" parent="1" source="uxrSuiRVOPCv7kYr1vWN-6" target="uxrSuiRVOPCv7kYr1vWN-33" edge="1">
          <mxGeometry relative="1" as="geometry">
            <mxPoint x="1040" y="530" as="sourcePoint" />
            <mxPoint x="1200" y="530" as="targetPoint" />
          </mxGeometry>
        </mxCell>
        <mxCell id="uxrSuiRVOPCv7kYr1vWN-39" value="" style="endArrow=none;html=1;rounded=0;exitX=1;exitY=0;exitDx=0;exitDy=0;entryX=0.5;entryY=1;entryDx=0;entryDy=0;" parent="1" source="uxrSuiRVOPCv7kYr1vWN-6" target="uxrSuiRVOPCv7kYr1vWN-34" edge="1">
          <mxGeometry relative="1" as="geometry">
            <mxPoint x="1050" y="540" as="sourcePoint" />
            <mxPoint x="1210" y="540" as="targetPoint" />
          </mxGeometry>
        </mxCell>
        <mxCell id="uxrSuiRVOPCv7kYr1vWN-41" value="" style="endArrow=none;html=1;rounded=0;exitX=1;exitY=1;exitDx=0;exitDy=0;entryX=0.5;entryY=0;entryDx=0;entryDy=0;" parent="1" source="uxrSuiRVOPCv7kYr1vWN-7" target="uxrSuiRVOPCv7kYr1vWN-6" edge="1">
          <mxGeometry relative="1" as="geometry">
            <mxPoint x="1070" y="560" as="sourcePoint" />
            <mxPoint x="1230" y="560" as="targetPoint" />
          </mxGeometry>
        </mxCell>
        <mxCell id="uxrSuiRVOPCv7kYr1vWN-42" value="" style="endArrow=none;html=1;rounded=0;entryX=0.5;entryY=0;entryDx=0;entryDy=0;" parent="1" target="uxrSuiRVOPCv7kYr1vWN-31" edge="1">
          <mxGeometry relative="1" as="geometry">
            <mxPoint x="1170" y="720" as="sourcePoint" />
            <mxPoint x="1190" y="520" as="targetPoint" />
          </mxGeometry>
        </mxCell>
        <mxCell id="uxrSuiRVOPCv7kYr1vWN-43" value="" style="endArrow=none;html=1;rounded=0;entryX=0;entryY=0.5;entryDx=0;entryDy=0;exitX=1;exitY=1;exitDx=0;exitDy=0;" parent="1" source="uxrSuiRVOPCv7kYr1vWN-6" target="uxrSuiRVOPCv7kYr1vWN-30" edge="1">
          <mxGeometry relative="1" as="geometry">
            <mxPoint x="1040" y="530" as="sourcePoint" />
            <mxPoint x="1200" y="530" as="targetPoint" />
          </mxGeometry>
        </mxCell>
        <mxCell id="uxrSuiRVOPCv7kYr1vWN-44" value="&lt;span style=&quot;font-size: 18px;&quot;&gt;name&lt;/span&gt;" style="ellipse;whiteSpace=wrap;html=1;align=center;" parent="1" vertex="1">
          <mxGeometry x="530" y="390" width="150" height="40" as="geometry" />
        </mxCell>
        <mxCell id="uxrSuiRVOPCv7kYr1vWN-45" value="&lt;span style=&quot;font-size: 18px;&quot;&gt;password&lt;/span&gt;" style="ellipse;whiteSpace=wrap;html=1;align=center;" parent="1" vertex="1">
          <mxGeometry x="870" y="400" width="150" height="40" as="geometry" />
        </mxCell>
        <mxCell id="uxrSuiRVOPCv7kYr1vWN-46" value="&lt;span style=&quot;font-size: 18px;&quot;&gt;user_name&lt;/span&gt;" style="ellipse;whiteSpace=wrap;html=1;align=center;" parent="1" vertex="1">
          <mxGeometry x="787" y="330" width="150" height="40" as="geometry" />
        </mxCell>
        <mxCell id="uxrSuiRVOPCv7kYr1vWN-47" value="" style="endArrow=none;html=1;rounded=0;exitX=0;exitY=1;exitDx=0;exitDy=0;entryX=0.75;entryY=0;entryDx=0;entryDy=0;" parent="1" source="uxrSuiRVOPCv7kYr1vWN-46" target="uxrSuiRVOPCv7kYr1vWN-5" edge="1">
          <mxGeometry relative="1" as="geometry">
            <mxPoint x="500" y="470" as="sourcePoint" />
            <mxPoint x="660" y="470" as="targetPoint" />
          </mxGeometry>
        </mxCell>
        <mxCell id="uxrSuiRVOPCv7kYr1vWN-48" value="" style="endArrow=none;html=1;rounded=0;exitX=1;exitY=1;exitDx=0;exitDy=0;entryX=0.25;entryY=0;entryDx=0;entryDy=0;" parent="1" source="uxrSuiRVOPCv7kYr1vWN-44" target="uxrSuiRVOPCv7kYr1vWN-5" edge="1">
          <mxGeometry relative="1" as="geometry">
            <mxPoint x="510" y="480" as="sourcePoint" />
            <mxPoint x="670" y="480" as="targetPoint" />
          </mxGeometry>
        </mxCell>
        <mxCell id="uxrSuiRVOPCv7kYr1vWN-49" value="" style="endArrow=none;html=1;rounded=0;exitX=0.5;exitY=1;exitDx=0;exitDy=0;entryX=0.5;entryY=0;entryDx=0;entryDy=0;" parent="1" source="uxrSuiRVOPCv7kYr1vWN-8" target="uxrSuiRVOPCv7kYr1vWN-5" edge="1">
          <mxGeometry relative="1" as="geometry">
            <mxPoint x="520" y="490" as="sourcePoint" />
            <mxPoint x="680" y="490" as="targetPoint" />
          </mxGeometry>
        </mxCell>
        <mxCell id="uxrSuiRVOPCv7kYr1vWN-50" value="" style="endArrow=none;html=1;rounded=0;entryX=0;entryY=0.5;entryDx=0;entryDy=0;exitX=1;exitY=0;exitDx=0;exitDy=0;" parent="1" source="uxrSuiRVOPCv7kYr1vWN-5" target="uxrSuiRVOPCv7kYr1vWN-45" edge="1">
          <mxGeometry relative="1" as="geometry">
            <mxPoint x="530" y="500" as="sourcePoint" />
            <mxPoint x="690" y="500" as="targetPoint" />
          </mxGeometry>
        </mxCell>
        <mxCell id="uxrSuiRVOPCv7kYr1vWN-51" value="&lt;font style=&quot;font-size: 16px;&quot;&gt;add&lt;/font&gt;" style="shape=rhombus;perimeter=rhombusPerimeter;whiteSpace=wrap;html=1;align=center;" parent="1" vertex="1">
          <mxGeometry x="570" y="540" width="120" height="60" as="geometry" />
        </mxCell>
        <mxCell id="uxrSuiRVOPCv7kYr1vWN-52" value="&lt;font style=&quot;font-size: 16px;&quot;&gt;add&lt;/font&gt;" style="shape=rhombus;perimeter=rhombusPerimeter;whiteSpace=wrap;html=1;align=center;" parent="1" vertex="1">
          <mxGeometry x="817" y="540" width="120" height="60" as="geometry" />
        </mxCell>
        <mxCell id="uxrSuiRVOPCv7kYr1vWN-53" value="&lt;span style=&quot;font-size: 16px;&quot;&gt;add&lt;/span&gt;" style="shape=rhombus;perimeter=rhombusPerimeter;whiteSpace=wrap;html=1;align=center;" parent="1" vertex="1">
          <mxGeometry x="720" y="670" width="120" height="60" as="geometry" />
        </mxCell>
        <mxCell id="uxrSuiRVOPCv7kYr1vWN-54" value="" style="fontSize=12;html=1;endArrow=ERzeroToMany;endFill=1;rounded=0;exitX=0.5;exitY=1;exitDx=0;exitDy=0;entryX=0.5;entryY=0;entryDx=0;entryDy=0;" parent="1" source="uxrSuiRVOPCv7kYr1vWN-51" target="uxrSuiRVOPCv7kYr1vWN-3" edge="1">
          <mxGeometry width="100" height="100" relative="1" as="geometry">
            <mxPoint x="430" y="680" as="sourcePoint" />
            <mxPoint x="580" y="690" as="targetPoint" />
            <Array as="points">
              <mxPoint x="630" y="640" />
              <mxPoint x="440" y="640" />
            </Array>
          </mxGeometry>
        </mxCell>
        <mxCell id="uxrSuiRVOPCv7kYr1vWN-55" value="" style="fontSize=12;html=1;endArrow=ERzeroToOne;endFill=1;rounded=0;exitX=0.5;exitY=0;exitDx=0;exitDy=0;entryX=0;entryY=0.5;entryDx=0;entryDy=0;strokeWidth=2;" parent="1" source="uxrSuiRVOPCv7kYr1vWN-51" target="uxrSuiRVOPCv7kYr1vWN-5" edge="1">
          <mxGeometry width="100" height="100" relative="1" as="geometry">
            <mxPoint x="640" y="710" as="sourcePoint" />
            <mxPoint x="740" y="610" as="targetPoint" />
            <Array as="points">
              <mxPoint x="630" y="480" />
            </Array>
          </mxGeometry>
        </mxCell>
        <mxCell id="uxrSuiRVOPCv7kYr1vWN-56" value="" style="fontSize=12;html=1;endArrow=ERzeroToMany;endFill=1;rounded=0;entryX=0.25;entryY=0;entryDx=0;entryDy=0;exitX=0.5;exitY=1;exitDx=0;exitDy=0;" parent="1" source="uxrSuiRVOPCv7kYr1vWN-52" target="uxrSuiRVOPCv7kYr1vWN-6" edge="1">
          <mxGeometry width="100" height="100" relative="1" as="geometry">
            <mxPoint x="930" y="560" as="sourcePoint" />
            <mxPoint x="1030" y="460" as="targetPoint" />
            <Array as="points">
              <mxPoint x="877" y="640" />
              <mxPoint x="1110" y="640" />
            </Array>
          </mxGeometry>
        </mxCell>
        <mxCell id="uxrSuiRVOPCv7kYr1vWN-57" value="" style="fontSize=12;html=1;endArrow=ERzeroToOne;endFill=1;rounded=0;exitX=0.5;exitY=0;exitDx=0;exitDy=0;entryX=1;entryY=0.5;entryDx=0;entryDy=0;" parent="1" source="uxrSuiRVOPCv7kYr1vWN-52" target="uxrSuiRVOPCv7kYr1vWN-5" edge="1">
          <mxGeometry width="100" height="100" relative="1" as="geometry">
            <mxPoint x="640" y="670" as="sourcePoint" />
            <mxPoint x="890" y="440" as="targetPoint" />
            <Array as="points">
              <mxPoint x="877" y="480" />
            </Array>
          </mxGeometry>
        </mxCell>
        <mxCell id="uxrSuiRVOPCv7kYr1vWN-58" value="" style="fontSize=12;html=1;endArrow=ERzeroToMany;endFill=1;rounded=0;exitX=0;exitY=0.5;exitDx=0;exitDy=0;entryX=1;entryY=0.5;entryDx=0;entryDy=0;" parent="1" source="uxrSuiRVOPCv7kYr1vWN-53" target="uxrSuiRVOPCv7kYr1vWN-3" edge="1">
          <mxGeometry width="100" height="100" relative="1" as="geometry">
            <mxPoint x="640" y="610" as="sourcePoint" />
            <mxPoint x="450" y="690" as="targetPoint" />
          </mxGeometry>
        </mxCell>
        <mxCell id="uxrSuiRVOPCv7kYr1vWN-59" value="" style="fontSize=12;html=1;endArrow=ERzeroToOne;endFill=1;rounded=0;exitX=1;exitY=0.5;exitDx=0;exitDy=0;entryX=0;entryY=0.5;entryDx=0;entryDy=0;strokeWidth=2;" parent="1" source="uxrSuiRVOPCv7kYr1vWN-53" target="uxrSuiRVOPCv7kYr1vWN-6" edge="1">
          <mxGeometry width="100" height="100" relative="1" as="geometry">
            <mxPoint x="640" y="550" as="sourcePoint" />
            <mxPoint x="697" y="430" as="targetPoint" />
          </mxGeometry>
        </mxCell>
        <mxCell id="uxrSuiRVOPCv7kYr1vWN-60" value="&lt;font style=&quot;font-size: 18px;&quot;&gt;code&lt;/font&gt;" style="ellipse;whiteSpace=wrap;html=1;align=center;fontStyle=4;" parent="1" vertex="1">
          <mxGeometry x="723.5" y="1288" width="100" height="40" as="geometry" />
        </mxCell>
        <mxCell id="uxrSuiRVOPCv7kYr1vWN-61" value="&lt;span style=&quot;font-size: 18px;&quot;&gt;title&lt;/span&gt;" style="ellipse;whiteSpace=wrap;html=1;align=center;" parent="1" vertex="1">
          <mxGeometry x="470" y="1160" width="150" height="40" as="geometry" />
        </mxCell>
        <mxCell id="uxrSuiRVOPCv7kYr1vWN-62" value="&lt;span style=&quot;font-size: 18px;&quot;&gt;credits&lt;/span&gt;" style="ellipse;whiteSpace=wrap;html=1;align=center;" parent="1" vertex="1">
          <mxGeometry x="563.5" y="1248" width="150" height="40" as="geometry" />
        </mxCell>
        <mxCell id="uxrSuiRVOPCv7kYr1vWN-63" value="&lt;span style=&quot;font-size: 18px;&quot;&gt;description&lt;/span&gt;" style="ellipse;whiteSpace=wrap;html=1;align=center;" parent="1" vertex="1">
          <mxGeometry x="846.5" y="1228" width="150" height="40" as="geometry" />
        </mxCell>
        <mxCell id="uxrSuiRVOPCv7kYr1vWN-64" value="" style="endArrow=none;html=1;rounded=0;exitX=0;exitY=0.75;exitDx=0;exitDy=0;" parent="1" source="uxrSuiRVOPCv7kYr1vWN-4" target="uxrSuiRVOPCv7kYr1vWN-61" edge="1">
          <mxGeometry relative="1" as="geometry">
            <mxPoint x="706.5" y="1178" as="sourcePoint" />
            <mxPoint x="646.5" y="1178" as="targetPoint" />
          </mxGeometry>
        </mxCell>
        <mxCell id="uxrSuiRVOPCv7kYr1vWN-65" value="" style="endArrow=none;html=1;rounded=0;exitX=0.25;exitY=1;exitDx=0;exitDy=0;entryX=0.5;entryY=0;entryDx=0;entryDy=0;" parent="1" source="uxrSuiRVOPCv7kYr1vWN-4" target="uxrSuiRVOPCv7kYr1vWN-62" edge="1">
          <mxGeometry relative="1" as="geometry">
            <mxPoint x="436.5" y="1298" as="sourcePoint" />
            <mxPoint x="596.5" y="1298" as="targetPoint" />
          </mxGeometry>
        </mxCell>
        <mxCell id="uxrSuiRVOPCv7kYr1vWN-66" value="" style="endArrow=none;html=1;rounded=0;exitX=0.5;exitY=1;exitDx=0;exitDy=0;entryX=0.5;entryY=0;entryDx=0;entryDy=0;" parent="1" source="uxrSuiRVOPCv7kYr1vWN-4" target="uxrSuiRVOPCv7kYr1vWN-60" edge="1">
          <mxGeometry relative="1" as="geometry">
            <mxPoint x="446.5" y="1308" as="sourcePoint" />
            <mxPoint x="606.5" y="1308" as="targetPoint" />
          </mxGeometry>
        </mxCell>
        <mxCell id="uxrSuiRVOPCv7kYr1vWN-67" value="" style="endArrow=none;html=1;rounded=0;exitX=0.75;exitY=1;exitDx=0;exitDy=0;entryX=0;entryY=0;entryDx=0;entryDy=0;" parent="1" source="uxrSuiRVOPCv7kYr1vWN-4" target="uxrSuiRVOPCv7kYr1vWN-63" edge="1">
          <mxGeometry relative="1" as="geometry">
            <mxPoint x="456.5" y="1318" as="sourcePoint" />
            <mxPoint x="616.5" y="1318" as="targetPoint" />
          </mxGeometry>
        </mxCell>
        <mxCell id="uxrSuiRVOPCv7kYr1vWN-68" value="" style="fontSize=12;html=1;endArrow=ERoneToMany;rounded=0;exitX=0.5;exitY=0;exitDx=0;exitDy=0;entryX=0.75;entryY=1;entryDx=0;entryDy=0;" parent="1" source="uxrSuiRVOPCv7kYr1vWN-70" target="uxrSuiRVOPCv7kYr1vWN-3" edge="1">
          <mxGeometry width="100" height="100" relative="1" as="geometry">
            <mxPoint x="690" y="960" as="sourcePoint" />
            <mxPoint x="700" y="850" as="targetPoint" />
          </mxGeometry>
        </mxCell>
        <mxCell id="uxrSuiRVOPCv7kYr1vWN-69" value="" style="fontSize=12;html=1;endArrow=ERoneToMany;rounded=0;exitX=0.5;exitY=1;exitDx=0;exitDy=0;entryX=0.25;entryY=0;entryDx=0;entryDy=0;" parent="1" source="uxrSuiRVOPCv7kYr1vWN-70" target="uxrSuiRVOPCv7kYr1vWN-4" edge="1">
          <mxGeometry width="100" height="100" relative="1" as="geometry">
            <mxPoint x="700" y="1000" as="sourcePoint" />
            <mxPoint x="720" y="1030" as="targetPoint" />
            <Array as="points">
              <mxPoint x="470" y="1060" />
              <mxPoint x="744" y="1110" />
            </Array>
          </mxGeometry>
        </mxCell>
        <mxCell id="uxrSuiRVOPCv7kYr1vWN-70" value="&lt;font style=&quot;font-size: 16px;&quot;&gt;enrollments&lt;/font&gt;" style="shape=associativeEntity;whiteSpace=wrap;html=1;align=center;" parent="1" vertex="1">
          <mxGeometry x="380" y="950" width="180" height="70" as="geometry" />
        </mxCell>
        <mxCell id="uxrSuiRVOPCv7kYr1vWN-71" value="&lt;span style=&quot;font-size: 18px;&quot;&gt;enrolled_date&lt;/span&gt;" style="ellipse;whiteSpace=wrap;html=1;align=center;" parent="1" vertex="1">
          <mxGeometry x="90" y="965" width="190" height="40" as="geometry" />
        </mxCell>
        <mxCell id="uxrSuiRVOPCv7kYr1vWN-72" value="" style="endArrow=none;html=1;rounded=0;exitX=1;exitY=0.5;exitDx=0;exitDy=0;entryX=0.047;entryY=0.501;entryDx=0;entryDy=0;entryPerimeter=0;" parent="1" source="uxrSuiRVOPCv7kYr1vWN-71" target="uxrSuiRVOPCv7kYr1vWN-70" edge="1">
          <mxGeometry relative="1" as="geometry">
            <mxPoint x="370" y="1030" as="sourcePoint" />
            <mxPoint x="530" y="1030" as="targetPoint" />
          </mxGeometry>
        </mxCell>
        <mxCell id="uxrSuiRVOPCv7kYr1vWN-73" value="&lt;span style=&quot;font-size: 18px;&quot;&gt;status&lt;/span&gt;" style="ellipse;whiteSpace=wrap;html=1;align=center;" parent="1" vertex="1">
          <mxGeometry x="152.5" y="1030" width="150" height="40" as="geometry" />
        </mxCell>
        <mxCell id="uxrSuiRVOPCv7kYr1vWN-74" value="" style="endArrow=none;html=1;rounded=0;exitX=1;exitY=0;exitDx=0;exitDy=0;entryX=0;entryY=0.75;entryDx=0;entryDy=0;" parent="1" source="uxrSuiRVOPCv7kYr1vWN-73" target="uxrSuiRVOPCv7kYr1vWN-70" edge="1">
          <mxGeometry relative="1" as="geometry">
            <mxPoint x="290" y="995" as="sourcePoint" />
            <mxPoint x="398" y="995" as="targetPoint" />
          </mxGeometry>
        </mxCell>
        <mxCell id="uxrSuiRVOPCv7kYr1vWN-75" value="&lt;span style=&quot;font-size: 18px;&quot;&gt;grade&lt;/span&gt;" style="ellipse;whiteSpace=wrap;html=1;align=center;" parent="1" vertex="1">
          <mxGeometry x="240" y="1090" width="150" height="40" as="geometry" />
        </mxCell>
        <mxCell id="uxrSuiRVOPCv7kYr1vWN-76" value="" style="endArrow=none;html=1;rounded=0;exitX=0.5;exitY=0;exitDx=0;exitDy=0;entryX=0;entryY=1;entryDx=0;entryDy=0;" parent="1" source="uxrSuiRVOPCv7kYr1vWN-75" target="uxrSuiRVOPCv7kYr1vWN-70" edge="1">
          <mxGeometry relative="1" as="geometry">
            <mxPoint x="291" y="1056" as="sourcePoint" />
            <mxPoint x="390" y="1013" as="targetPoint" />
          </mxGeometry>
        </mxCell>
        <mxCell id="uxrSuiRVOPCv7kYr1vWN-77" value="" style="fontSize=12;html=1;endArrow=ERoneToMany;rounded=0;entryX=0.75;entryY=0;entryDx=0;entryDy=0;exitX=0.5;exitY=1;exitDx=0;exitDy=0;" parent="1" source="uxrSuiRVOPCv7kYr1vWN-78" target="uxrSuiRVOPCv7kYr1vWN-4" edge="1">
          <mxGeometry width="100" height="100" relative="1" as="geometry">
            <mxPoint x="1060" y="1000" as="sourcePoint" />
            <mxPoint x="798.5" y="1138" as="targetPoint" />
            <Array as="points">
              <mxPoint x="1110" y="1040" />
              <mxPoint x="804" y="1110" />
            </Array>
          </mxGeometry>
        </mxCell>
        <mxCell id="uxrSuiRVOPCv7kYr1vWN-78" value="&lt;span style=&quot;font-size: 16px;&quot;&gt;teaches&lt;/span&gt;" style="shape=rhombus;perimeter=rhombusPerimeter;whiteSpace=wrap;html=1;align=center;" parent="1" vertex="1">
          <mxGeometry x="1035" y="935" width="150" height="70" as="geometry" />
        </mxCell>
        <mxCell id="uxrSuiRVOPCv7kYr1vWN-79" value="" style="fontSize=12;html=1;endArrow=ERmandOne;rounded=0;exitX=0.5;exitY=0;exitDx=0;exitDy=0;entryX=0.25;entryY=1;entryDx=0;entryDy=0;" parent="1" source="uxrSuiRVOPCv7kYr1vWN-78" target="uxrSuiRVOPCv7kYr1vWN-6" edge="1">
          <mxGeometry width="100" height="100" relative="1" as="geometry">
            <mxPoint x="850" y="940" as="sourcePoint" />
            <mxPoint x="950" y="840" as="targetPoint" />
          </mxGeometry>
        </mxCell>
        <mxCell id="uxrSuiRVOPCv7kYr1vWN-80" value="" style="endArrow=none;html=1;rounded=0;exitX=0.75;exitY=0;exitDx=0;exitDy=0;entryX=0.5;entryY=1;entryDx=0;entryDy=0;" parent="1" source="uxrSuiRVOPCv7kYr1vWN-6" target="uxrSuiRVOPCv7kYr1vWN-13" edge="1">
          <mxGeometry relative="1" as="geometry">
            <mxPoint x="1210" y="690" as="sourcePoint" />
            <mxPoint x="1270" y="600" as="targetPoint" />
          </mxGeometry>
        </mxCell>
      </root>
    </mxGraphModel>
  </diagram>
</mxfile>
